<?xml version="1.0" encoding="UTF-8" standalone="no"?>
<!DOCTYPE svg PUBLIC "-//W3C//DTD SVG 1.1//EN"
 "http://www.w3.org/Graphics/SVG/1.1/DTD/svg11.dtd">
<!-- Generated by graphviz version 2.34.0 (20130907.0228)
 -->
<!-- Title: G Pages: 1 -->
<svg width="526pt" height="208pt"
 viewBox="0.00 0.00 526.00 208.00" xmlns="http://www.w3.org/2000/svg" xmlns:xlink="http://www.w3.org/1999/xlink">
<g id="graph0" class="graph" transform="scale(1 1) rotate(0) translate(4 204)">
<title>G</title>
<polygon fill="white" stroke="white" points="-4,4 -4,-204 522,-204 522,4 -4,4"/>
<g id="clust1" class="cluster"><title>cluster_Global</title>
<path fill="none" stroke="gray" d="M330,-8C330,-8 498,-8 498,-8 504,-8 510,-14 510,-20 510,-20 510,-180 510,-180 510,-186 504,-192 498,-192 498,-192 330,-192 330,-192 324,-192 318,-186 318,-180 318,-180 318,-20 318,-20 318,-14 324,-8 330,-8"/>
<text text-anchor="middle" x="414" y="-177" font-family="Times,serif" font-size="11.00" fill="gray">Global</text>
</g>
<g id="clust2" class="cluster"><title>cluster_\App</title>
<path fill="none" stroke="gray" d="M338,-16C338,-16 490,-16 490,-16 496,-16 502,-22 502,-28 502,-28 502,-151 502,-151 502,-157 496,-163 490,-163 490,-163 338,-163 338,-163 332,-163 326,-157 326,-151 326,-151 326,-28 326,-28 326,-22 332,-16 338,-16"/>
<text text-anchor="middle" x="414" y="-148" font-family="Times,serif" font-size="11.00" fill="gray">App</text>
</g>
<g id="clust3" class="cluster"><title>cluster_\App\Http</title>
<path fill="none" stroke="gray" d="M346,-24C346,-24 482,-24 482,-24 488,-24 494,-30 494,-36 494,-36 494,-122 494,-122 494,-128 488,-134 482,-134 482,-134 346,-134 346,-134 340,-134 334,-128 334,-122 334,-122 334,-36 334,-36 334,-30 340,-24 346,-24"/>
<text text-anchor="middle" x="414" y="-119" font-family="Times,serif" font-size="11.00" fill="gray">Http</text>
</g>
<g id="clust4" class="cluster"><title>cluster_\App\Http\Controllers</title>
<path fill="none" stroke="gray" d="M354,-32C354,-32 474,-32 474,-32 480,-32 486,-38 486,-44 486,-44 486,-93 486,-93 486,-99 480,-105 474,-105 474,-105 354,-105 354,-105 348,-105 342,-99 342,-93 342,-93 342,-44 342,-44 342,-38 348,-32 354,-32"/>
<text text-anchor="middle" x="414" y="-90" font-family="Times,serif" font-size="11.00" fill="gray">Controllers</text>
</g>
<!-- \\App\\Http\\Controllers\\WeatherController -->
<g id="node1" class="node"><title>\\App\\Http\\Controllers\\WeatherController</title>
<polygon fill="none" stroke="black" points="478.218,-76 349.782,-76 349.782,-40 478.218,-40 478.218,-76"/>
<text text-anchor="middle" x="414" y="-53.6" font-family="Courier,monospace" font-size="11.00">WeatherController</text>
</g>
<!-- \\App\\Http\\Controllers\\Controller -->
<g id="node2" class="node"><title>\\App\\Http\\Controllers\\Controller</title>
<ellipse fill="none" stroke="black" cx="139" cy="-58" rx="138.926" ry="18"/>
<text text-anchor="middle" x="139" y="-52.4" font-family="Times,serif" font-size="14.00" fill="gray">\App\Http\Controllers\Controller</text>
</g>
<!-- \\App\\Http\\Controllers\\WeatherController&#45;&gt;\\App\\Http\\Controllers\\Controller -->
<g id="edge1" class="edge"><title>\\App\\Http\\Controllers\\WeatherController&#45;&gt;\\App\\Http\\Controllers\\Controller</title>
<path fill="none" stroke="black" d="M349.682,-58C331.053,-58 309.842,-58 288.236,-58"/>
<polygon fill="none" stroke="black" points="287.95,-54.5001 277.95,-58 287.95,-61.5001 287.95,-54.5001"/>
</g>
</g>
</svg>
