<?xml version="1.0" standalone="no"?>
<!DOCTYPE svg PUBLIC "-//W3C//DTD SVG 20010904//EN"
 "http://www.w3.org/TR/2001/REC-SVG-20010904/DTD/svg10.dtd">
<svg version="1.0" xmlns="http://www.w3.org/2000/svg"
 width="600.000000pt" height="258.000000pt" viewBox="0 0 600.000000 258.000000"
 preserveAspectRatio="xMidYMid meet">
<metadata>
Created by potrace 1.15, written by Peter Selinger 2001-2017
</metadata>
<g transform="translate(0.000000,258.000000) scale(0.100000,-0.100000)"
fill="#000000" stroke="none">
<path d="M4378 1285 l3 -304 -88 -4 -88 -3 88 -2 87 -2 0 -190 0 -190 -162 -3
-163 -3 163 -2 163 -2 -3 -180 c-2 -99 0 -180 5 -180 4 0 7 308 7 685 0 377
-3 685 -7 685 -5 0 -7 -137 -5 -305z"/>
<path d="M4590 845 l0 -85 250 0 250 0 0 85 0 85 -250 0 -250 0 0 -85z"/>
<path d="M1150 565 l0 -85 270 0 270 0 0 85 0 85 -270 0 -270 0 0 -85z m74 36
c3 -5 -4 -11 -15 -14 -23 -6 -23 -37 0 -45 10 -3 12 0 7 13 -4 13 -2 16 9 11
8 -3 15 -1 15 4 0 6 5 10 10 10 6 0 10 -9 10 -20 0 -11 5 -20 10 -20 6 0 10 9
10 20 0 22 24 30 80 27 21 -1 40 4 47 13 10 12 13 8 14 -25 1 -22 4 -30 6 -18
7 35 53 42 53 7 0 -8 -8 -14 -17 -15 -16 0 -16 -1 1 -8 34 -13 5 -18 -102 -19
-80 -1 -104 2 -109 13 -4 12 -7 12 -20 0 -8 -8 -18 -15 -23 -15 -13 0 -40 30
-40 45 0 15 27 45 40 45 5 0 11 -4 14 -9z"/>
<path d="M2060 565 l0 -85 160 0 c156 0 160 0 160 21 0 16 5 20 18 17 11 -3
19 0 19 7 0 7 -8 10 -19 7 -16 -4 -18 2 -18 57 l0 61 -160 0 -160 0 0 -85z"/>
<path d="M1050 330 l0 -80 370 0 370 0 0 80 0 80 -370 0 -370 0 0 -80z"/>
<path d="M2040 330 l0 -80 183 0 182 0 0 80 0 80 -182 0 -183 0 0 -80z"/>
</g>
</svg>
